<?xml version="1.0" standalone="no"?>
            <!DOCTYPE svg PUBLIC "-//W3C//DTD SVG 20010904//EN" "http://www.w3.org/TR/2001/REC-SVG-20010904/DTD/svg10.dtd">
            <svg
              version="1.0"
              xmlns="http://www.w3.org/2000/svg"
              width="20pt"
              height="25pt"
              viewBox="0 0 100.000000 126.000000"
              preserveAspectRatio="xMidYMid meet"
            >
              <g
                transform="translate(0.000000,126.000000) scale(0.100000,-0.100000)"
                fill="#e8eefe"
                stroke="none"
              >
                <path
                  d="M34 1218 c13 -24 65 -113 114 -198 l90 -155 -113 -5 -113 -5 233
                  -402 c127 -221 238 -411 246 -423 13 -20 29 4 257 399 133 231 242 423 242
                  426 0 3 -49 5 -110 5 -60 0 -110 2 -110 4 0 3 49 90 110 195 60 104 110 192
                  110 195 0 3 -221 6 -490 6 l-491 0 25 -42z m836 -33 c0 -3 -42 -78 -92 -166
                  l-93 -159 -183 2 -184 3 -70 120 c-38 66 -80 139 -94 163 l-25 42 371 0 c203
                  0 370 -2 370 -5z m-481 -582 c58 -100 109 -184 112 -187 3 -3 54 80 114 184
                  l110 190 72 0 c40 0 73 -2 73 -5 0 -17 -365 -634 -371 -628 -4 5 -81 134 -169
                  288 -89 154 -171 295 -182 313 l-20 33 78 -3 78 -3 105 -182z m249 179 c-20
                  -49 -133 -231 -139 -225 -4 4 -37 59 -73 121 l-65 112 140 0 c77 0 139 -4 137
                  -8z"
                />
              </g>
            </svg>