<?xml version="1.0" standalone="no"?>
<!DOCTYPE svg PUBLIC "-//W3C//DTD SVG 20010904//EN"
 "http://www.w3.org/TR/2001/REC-SVG-20010904/DTD/svg10.dtd">
<svg version="1.0" xmlns="http://www.w3.org/2000/svg"
 width="96.000000pt" height="123.000000pt" viewBox="0 0 96.000000 123.000000"
 preserveAspectRatio="xMidYMid meet">

<g transform="translate(0.000000,123.000000) scale(0.100000,-0.100000)"
fill="#000000" stroke="none">
<path d="M24 1203 c8 -16 59 -105 114 -200 l100 -172 -114 -3 -114 -3 231
-400 c127 -220 234 -403 238 -407 4 -4 113 176 242 400 l235 407 -113 5 -112
5 114 198 114 197 -475 0 -475 0 15 -27z m813 -85 c-20 -35 -64 -112 -99 -173
l-64 -110 -190 -3 -189 -2 -98 168 c-53 93 -97 172 -97 176 0 3 174 6 386 6
l386 0 -35 -62z m-472 -507 c53 -93 102 -177 109 -186 10 -14 27 11 116 166
57 99 109 183 115 186 7 2 46 3 88 1 l77 -3 -192 -333 c-170 -295 -194 -332
-205 -316 -20 27 -373 640 -373 648 0 3 38 6 84 6 l83 0 98 -169z m258 137
c-11 -18 -46 -80 -78 -137 -54 -95 -60 -102 -72 -85 -18 25 -143 242 -143 249
0 3 70 5 156 5 l156 0 -19 -32z"/>
</g>
</svg>
